<svg width="400" height="200" viewBox="0 0 400 200" fill="none" xmlns="http://www.w3.org/2000/svg">
<rect x="16" y="144" width="68" height="18" fill="#ACB3C3"/>
<rect x="188" y="144" width="68" height="18" fill="#ACB3C3"/>
<rect x="194" y="76" width="40" height="18" fill="#ACB3C3"/>
<rect x="16" y="46" width="68" height="18" fill="#ACB3C3"/>
<rect x="234" y="76" width="70" height="24" transform="rotate(90 234 76)" fill="#ACB3C3"/>
<circle cx="223" cy="50" r="14" fill="#ACB3C3"/>
<circle cx="370.698" cy="150" r="14" fill="#ACB3C3"/>
<path fill-rule="evenodd" clip-rule="evenodd" d="M145 75.1741C123.898 75.9038 108 94.1038 108 115.218V123.782C108 144.896 123.898 163.096 145 163.826C160.588 164.365 173.739 152.543 175.061 137.001C175.615 130.484 176.017 123.752 176 118.039C175.986 113.185 175.644 107.547 175.166 101.987C173.828 86.4246 160.61 74.6343 145 75.1741ZM136.275 91.0001C123.686 92.0434 114 102.565 114 115.198V122.802C114 135.435 123.686 145.957 136.275 147C144.637 147 151.832 140.997 152.784 132.689C153.312 128.087 153.734 123.118 153.734 119C153.734 114.882 153.312 109.913 152.784 105.311C151.832 97.0034 144.637 91.0001 136.275 91.0001Z" fill="#ACB3C3"/>
<path fill-rule="evenodd" clip-rule="evenodd" d="M295.698 75.1741C316.8 75.9038 332.698 94.1038 332.698 115.218V123.782C332.698 144.896 316.8 163.096 295.698 163.826C280.11 164.365 266.959 152.543 265.637 137.001C265.083 130.484 264.681 123.752 264.698 118.039C264.713 113.185 265.054 107.547 265.532 101.987C266.87 86.4246 280.088 74.6343 295.698 75.1741ZM304.423 91.0001C317.012 92.0434 326.698 102.565 326.698 115.198V122.802C326.698 135.435 317.012 145.957 304.423 147C296.061 147 288.866 140.997 287.914 132.689C287.386 128.087 286.964 123.119 286.964 119C286.964 114.882 287.386 109.913 287.914 105.311C288.866 97.0034 296.061 91.0001 304.423 91.0001Z" fill="#ACB3C3"/>
<path d="M122 40L122 154.835L121 162L98 162L98 40L122 40Z" fill="#ACB3C3"/>
<path d="M343 40L343 162L320 162L319 154.64L319 40L343 40Z" fill="#ACB3C3"/>
<path d="M358.934 54H361.584V41.8451H366.54V40H354V41.8451H358.934V54Z" fill="#ACB3C3"/>
<path d="M369.449 54H371.825V47.0761C371.825 45.8207 371.619 44.0136 371.505 42.7391H371.597L372.921 45.9728L375.868 52.6495H377.513L380.437 45.9728L381.784 42.7391H381.876C381.739 44.0136 381.533 45.8207 381.533 47.0761V54H384V40H380.939L377.901 47.0761C377.513 48.0082 377.193 48.9592 376.805 49.9103H376.69C376.302 48.9592 375.96 48.0082 375.571 47.0761L372.487 40H369.449V54Z" fill="#ACB3C3"/>
<path fill-rule="evenodd" clip-rule="evenodd" d="M62 64V58H38L38 146H62L62 72L54 64H62Z" fill="#ACB3C3"/>
</svg>
